<svg width="24" height="24" viewBox="0 0 24 24" fill="none" xmlns="http://www.w3.org/2000/svg">
<path d="M3.75 3C3.55109 3 3.36032 3.07902 3.21967 3.21967C3.07902 3.36032 3 3.55109 3 3.75C3 3.94891 3.07902 4.13968 3.21967 4.28033C3.36032 4.42098 3.55109 4.5 3.75 4.5H4.119C4.28186 4.50028 4.4402 4.55357 4.57009 4.6518C4.69999 4.75003 4.79438 4.88788 4.839 5.0445L7.218 13.3695C7.35255 13.8393 7.63641 14.2525 8.02665 14.5467C8.41689 14.8409 8.8923 15 9.381 15H16.2345C16.6843 15.0001 17.1237 14.8654 17.4962 14.6132C17.8686 14.3611 18.157 14.0031 18.324 13.5855L20.535 8.0565C20.6259 7.82899 20.6597 7.58268 20.6334 7.3391C20.6071 7.09551 20.5216 6.86208 20.3842 6.65919C20.2469 6.4563 20.062 6.29014 19.8456 6.17523C19.6292 6.06032 19.388 6.00015 19.143 6H6.672L6.2805 4.632C6.14629 4.16216 5.86277 3.74878 5.47281 3.45434C5.08285 3.15991 4.60763 3.00043 4.119 3H3.75ZM9.75 21C10.0455 21 10.3381 20.9418 10.611 20.8287C10.884 20.7157 11.1321 20.5499 11.341 20.341C11.5499 20.1321 11.7157 19.884 11.8287 19.611C11.9418 19.3381 12 19.0455 12 18.75C12 18.4545 11.9418 18.1619 11.8287 17.889C11.7157 17.616 11.5499 17.3679 11.341 17.159C11.1321 16.9501 10.884 16.7843 10.611 16.6713C10.3381 16.5582 10.0455 16.5 9.75 16.5C9.15326 16.5 8.58097 16.7371 8.15901 17.159C7.73705 17.581 7.5 18.1533 7.5 18.75C7.5 19.3467 7.73705 19.919 8.15901 20.341C8.58097 20.7629 9.15326 21 9.75 21ZM15.75 21C16.0455 21 16.3381 20.9418 16.611 20.8287C16.884 20.7157 17.1321 20.5499 17.341 20.341C17.5499 20.1321 17.7157 19.884 17.8287 19.611C17.9418 19.3381 18 19.0455 18 18.75C18 18.4545 17.9418 18.1619 17.8287 17.889C17.7157 17.616 17.5499 17.3679 17.341 17.159C17.1321 16.9501 16.884 16.7843 16.611 16.6713C16.3381 16.5582 16.0455 16.5 15.75 16.5C15.1533 16.5 14.581 16.7371 14.159 17.159C13.7371 17.581 13.5 18.1533 13.5 18.75C13.5 19.3467 13.7371 19.919 14.159 20.341C14.581 20.7629 15.1533 21 15.75 21Z" fill="#6B4ACB"/>
</svg>
